<svg width="29" height="30" viewBox="0 0 29 30" fill="none" xmlns="http://www.w3.org/2000/svg">
<path d="M25.4653 15.7013C24.6839 11.54 24.2946 9.45866 22.8119 8.22933C21.3333 7 19.2159 7 14.9826 7H14.0199C9.78661 7 7.66927 7 6.18794 8.22933C4.70794 9.45866 4.31728 11.54 3.53594 15.7013C2.43994 21.5533 1.89061 24.4787 3.49061 26.4067C5.08928 28.3333 8.06527 28.3333 14.0186 28.3333H14.9813C20.9346 28.3333 23.9119 28.3333 25.5106 26.4067C26.4386 25.2867 26.6439 23.8333 26.4386 21.6667M10.4999 7V5.66666C10.4999 4.6058 10.9214 3.58838 11.6715 2.83824C12.4217 2.08809 13.4391 1.66666 14.4999 1.66666C15.5608 1.66666 16.5782 2.08809 17.3284 2.83824C18.0785 3.58838 18.4999 4.6058 18.4999 5.66666V7" stroke="black" stroke-width="3" stroke-linecap="round"/>
</svg>
