<svg width="22" height="22" viewBox="0 0 22 22" fill="none" xmlns="http://www.w3.org/2000/svg">
<path d="M19.224 11.526C18.638 8.405 18.346 6.844 17.234 5.922C16.125 5 14.537 5 11.362 5H10.64C7.46496 5 5.87696 5 4.76596 5.922C3.65596 6.844 3.36296 8.405 2.77696 11.526C1.95496 15.915 1.54296 18.109 2.74296 19.555C3.94196 21 6.17396 21 10.639 21H11.361C15.826 21 18.059 21 19.258 19.555C19.954 18.715 20.108 17.625 19.954 16M7.99996 5V4C7.99996 3.20435 8.31603 2.44129 8.87864 1.87868C9.44125 1.31607 10.2043 1 11 1C11.7956 1 12.5587 1.31607 13.1213 1.87868C13.6839 2.44129 14 3.20435 14 4V5" stroke="white" stroke-width="2" stroke-linecap="round"/>
</svg>
