<svg width="22" height="22" viewBox="0 0 22 22" fill="none" xmlns="http://www.w3.org/2000/svg">
<path d="M13.3619 3.07952C13.3619 3.07952 13.4769 5.04935 15.2148 6.7862C16.9526 8.52405 18.9215 8.64004 18.9215 8.64004L19.8484 7.71312C20.5857 6.97575 21 5.97566 21 4.93286C21 3.89006 20.5857 2.88997 19.8484 2.1526C19.111 1.41523 18.1109 1.00098 17.0681 1.00098C16.0253 1.00098 15.0252 1.41523 14.2879 2.1526L13.3609 3.07952L11.0011 5.43932M18.9215 8.63904L13.6619 13.9006L10.5612 16.9993L10.4012 17.1603C9.82324 17.7373 9.53426 18.0262 9.21629 18.2742C8.84106 18.5671 8.43503 18.8182 8.00539 19.0231C7.64143 19.1961 7.25446 19.3251 6.47953 19.5831L3.19881 20.677M3.19881 20.677L2.39688 20.945C2.20995 21.0077 2.00924 21.017 1.81731 20.9718C1.62539 20.9267 1.44985 20.8289 1.31044 20.6895C1.17103 20.5501 1.07326 20.3746 1.02814 20.1827C0.98301 19.9907 0.99231 19.79 1.05499 19.6031L1.32297 18.8012M3.19881 20.677L1.32297 18.8012M1.32297 18.8012L2.41687 15.5204C2.67485 14.7455 2.80384 14.3585 2.97683 13.9946C3.18181 13.5646 3.43279 13.1587 3.72576 12.7837C3.97374 12.4657 4.26272 12.1767 4.83967 11.5998L7.50144 8.93901" stroke="white" stroke-width="2" stroke-linecap="round"/>
</svg>
