<svg width="33" height="22" viewBox="0 0 33 22" fill="none" xmlns="http://www.w3.org/2000/svg">
<path d="M2.27778 21.3333C1.77408 21.3333 1.35156 21.1627 1.01023 20.8213C0.668895 20.48 0.498821 20.0581 0.500006 19.5556C0.500006 19.0518 0.670673 18.6293 1.01201 18.288C1.35334 17.9467 1.77526 17.7766 2.27778 17.7778H30.7222C31.2259 17.7778 31.6484 17.9484 31.9898 18.2898C32.3311 18.6311 32.5012 19.053 32.5 19.5556C32.5 20.0593 32.3293 20.4818 31.988 20.8231C31.6467 21.1644 31.2247 21.3345 30.7222 21.3333H2.27778ZM2.27778 12.4444C1.77408 12.4444 1.35156 12.2738 1.01023 11.9324C0.668895 11.5911 0.498821 11.1692 0.500006 10.6667C0.500006 10.163 0.670673 9.74044 1.01201 9.39911C1.35334 9.05778 1.77526 8.8877 2.27778 8.88889H30.7222C31.2259 8.88889 31.6484 9.05956 31.9898 9.40089C32.3311 9.74222 32.5012 10.1641 32.5 10.6667C32.5 11.1704 32.3293 11.5929 31.988 11.9342C31.6467 12.2756 31.2247 12.4456 30.7222 12.4444H2.27778ZM2.27778 3.55556C1.77408 3.55556 1.35156 3.38489 1.01023 3.04356C0.668895 2.70223 0.498821 2.2803 0.500006 1.77778C0.500006 1.27408 0.670673 0.851562 1.01201 0.510228C1.35334 0.168895 1.77526 -0.00117903 2.27778 6.15147e-06H30.7222C31.2259 6.15147e-06 31.6484 0.170673 31.9898 0.512006C32.3311 0.853339 32.5012 1.27526 32.5 1.77778C32.5 2.28149 32.3293 2.704 31.988 3.04534C31.6467 3.38667 31.2247 3.55675 30.7222 3.55556H2.27778Z" fill="black"/>
</svg>
