<svg width="150" height="150" viewBox="0 0 150 150" fill="none" xmlns="http://www.w3.org/2000/svg">
<rect width="150" height="150" rx="75" fill="black" fill-opacity="0.35"/>
<path d="M17.1949 82L23.4949 68H26.0549L32.3749 82H29.6549L24.2349 69.38H25.2749L19.8749 82H17.1949ZM20.0949 78.76L20.7949 76.72H28.3549L29.0549 78.76H20.0949ZM39.9754 71.2C40.8287 71.2 41.5887 71.3667 42.2554 71.7C42.9354 72.0333 43.4687 72.5467 43.8554 73.24C44.2421 73.92 44.4354 74.8 44.4354 75.88V82H41.9354V76.2C41.9354 75.2533 41.7087 74.5467 41.2554 74.08C40.8154 73.6133 40.1954 73.38 39.3954 73.38C38.8087 73.38 38.2887 73.5 37.8354 73.74C37.3821 73.98 37.0287 74.34 36.7754 74.82C36.5354 75.2867 36.4154 75.88 36.4154 76.6V82H33.9154V71.32H36.2954V74.2L35.8754 73.32C36.2487 72.64 36.7887 72.12 37.4954 71.76C38.2154 71.3867 39.0421 71.2 39.9754 71.2ZM40.6154 69.86C40.2954 69.86 40.0021 69.8 39.7354 69.68C39.4821 69.5467 39.2487 69.3933 39.0354 69.22C38.8354 69.0333 38.6421 68.8733 38.4554 68.74C38.2687 68.6067 38.0821 68.54 37.8954 68.54C37.6154 68.54 37.3887 68.6467 37.2154 68.86C37.0421 69.0733 36.9421 69.3667 36.9154 69.74H35.5754C35.6021 68.9133 35.8021 68.26 36.1754 67.78C36.5621 67.3 37.0821 67.06 37.7354 67.06C38.0554 67.06 38.3487 67.1267 38.6154 67.26C38.8821 67.3933 39.1154 67.5467 39.3154 67.72C39.5287 67.8933 39.7287 68.0467 39.9154 68.18C40.1021 68.3133 40.2821 68.38 40.4554 68.38C40.7354 68.38 40.9621 68.28 41.1354 68.08C41.3221 67.88 41.4221 67.6 41.4354 67.24H42.7754C42.7621 68.0133 42.5621 68.6467 42.1754 69.14C41.7887 69.62 41.2687 69.86 40.6154 69.86ZM54.1868 82V79.84L54.0468 79.38V75.6C54.0468 74.8667 53.8268 74.3 53.3868 73.9C52.9468 73.4867 52.2801 73.28 51.3868 73.28C50.7868 73.28 50.1935 73.3733 49.6068 73.56C49.0335 73.7467 48.5468 74.0067 48.1468 74.34L47.1668 72.52C47.7401 72.08 48.4201 71.7533 49.2068 71.54C50.0068 71.3133 50.8335 71.2 51.6868 71.2C53.2335 71.2 54.4268 71.5733 55.2668 72.32C56.1201 73.0533 56.5468 74.1933 56.5468 75.74V82H54.1868ZM50.8268 82.14C50.0268 82.14 49.3268 82.0067 48.7268 81.74C48.1268 81.46 47.6601 81.08 47.3268 80.6C47.0068 80.1067 46.8468 79.5533 46.8468 78.94C46.8468 78.34 46.9868 77.8 47.2668 77.32C47.5601 76.84 48.0335 76.46 48.6868 76.18C49.3401 75.9 50.2068 75.76 51.2868 75.76H54.3868V77.42H51.4668C50.6135 77.42 50.0401 77.56 49.7468 77.84C49.4535 78.1067 49.3068 78.44 49.3068 78.84C49.3068 79.2933 49.4868 79.6533 49.8468 79.92C50.2068 80.1867 50.7068 80.32 51.3468 80.32C51.9601 80.32 52.5068 80.18 52.9868 79.9C53.4801 79.62 53.8335 79.2067 54.0468 78.66L54.4668 80.16C54.2268 80.7867 53.7935 81.2733 53.1668 81.62C52.5535 81.9667 51.7735 82.14 50.8268 82.14ZM64.2948 82.14C63.2681 82.14 62.3414 81.9133 61.5148 81.46C60.7014 80.9933 60.0614 80.3533 59.5948 79.54C59.1281 78.7267 58.8948 77.7667 58.8948 76.66C58.8948 75.5533 59.1281 74.5933 59.5948 73.78C60.0614 72.9667 60.7014 72.3333 61.5148 71.88C62.3414 71.4267 63.2681 71.2 64.2948 71.2C65.1881 71.2 65.9881 71.4 66.6948 71.8C67.4014 72.1867 67.9614 72.78 68.3748 73.58C68.7881 74.38 68.9948 75.4067 68.9948 76.66C68.9948 77.9 68.7948 78.9267 68.3948 79.74C67.9948 80.54 67.4414 81.14 66.7348 81.54C66.0281 81.94 65.2148 82.14 64.2948 82.14ZM64.5948 80C65.1948 80 65.7281 79.8667 66.1948 79.6C66.6748 79.3333 67.0548 78.9467 67.3348 78.44C67.6281 77.9333 67.7748 77.34 67.7748 76.66C67.7748 75.9667 67.6281 75.3733 67.3348 74.88C67.0548 74.3733 66.6748 73.9867 66.1948 73.72C65.7281 73.4533 65.1948 73.32 64.5948 73.32C63.9948 73.32 63.4548 73.4533 62.9748 73.72C62.5081 73.9867 62.1281 74.3733 61.8348 74.88C61.5548 75.3733 61.4148 75.9667 61.4148 76.66C61.4148 77.34 61.5548 77.9333 61.8348 78.44C62.1281 78.9467 62.5081 79.3333 62.9748 79.6C63.4548 79.8667 63.9948 80 64.5948 80ZM67.8348 82V79.48L67.9348 76.64L67.7348 73.8V67.16H70.2148V82H67.8348ZM73.5052 82V71.32H76.0052V82H73.5052ZM74.7652 69.56C74.2986 69.56 73.9119 69.4133 73.6052 69.12C73.3119 68.8267 73.1652 68.4733 73.1652 68.06C73.1652 67.6333 73.3119 67.28 73.6052 67C73.9119 66.7067 74.2986 66.56 74.7652 66.56C75.2319 66.56 75.6119 66.7 75.9052 66.98C76.2119 67.2467 76.3652 67.5867 76.3652 68C76.3652 68.44 76.2186 68.8133 75.9252 69.12C75.6319 69.4133 75.2452 69.56 74.7652 69.56ZM79.2865 82V71.32H81.6665V74.26L81.3865 73.4C81.7065 72.68 82.2065 72.1333 82.8865 71.76C83.5798 71.3867 84.4398 71.2 85.4665 71.2V73.58C85.3598 73.5533 85.2598 73.54 85.1665 73.54C85.0732 73.5267 84.9798 73.52 84.8865 73.52C83.9398 73.52 83.1865 73.8 82.6265 74.36C82.0665 74.9067 81.7865 75.7267 81.7865 76.82V82H79.2865ZM93.5523 82V70.72C93.5523 69.6 93.8789 68.7067 94.5323 68.04C95.1989 67.36 96.1456 67.02 97.3723 67.02C97.8123 67.02 98.2256 67.0667 98.6123 67.16C99.0123 67.2533 99.3456 67.4 99.6123 67.6L98.9323 69.48C98.7456 69.3333 98.5323 69.2267 98.2923 69.16C98.0523 69.08 97.8056 69.04 97.5523 69.04C97.0323 69.04 96.6389 69.1867 96.3723 69.48C96.1056 69.76 95.9723 70.1867 95.9723 70.76V71.96L96.0523 73.08V82H93.5523ZM91.7923 73.4V71.4H98.9123V73.4H91.7923ZM105.239 82.14C104.145 82.14 103.172 81.9067 102.319 81.44C101.465 80.96 100.792 80.3067 100.299 79.48C99.8055 78.6533 99.5588 77.7133 99.5588 76.66C99.5588 75.5933 99.8055 74.6533 100.299 73.84C100.792 73.0133 101.465 72.3667 102.319 71.9C103.172 71.4333 104.145 71.2 105.239 71.2C106.345 71.2 107.325 71.4333 108.179 71.9C109.045 72.3667 109.719 73.0067 110.199 73.82C110.692 74.6333 110.939 75.58 110.939 76.66C110.939 77.7133 110.692 78.6533 110.199 79.48C109.719 80.3067 109.045 80.96 108.179 81.44C107.325 81.9067 106.345 82.14 105.239 82.14ZM105.239 80C105.852 80 106.399 79.8667 106.879 79.6C107.359 79.3333 107.732 78.9467 107.999 78.44C108.279 77.9333 108.419 77.34 108.419 76.66C108.419 75.9667 108.279 75.3733 107.999 74.88C107.732 74.3733 107.359 73.9867 106.879 73.72C106.399 73.4533 105.859 73.32 105.259 73.32C104.645 73.32 104.099 73.4533 103.619 73.72C103.152 73.9867 102.779 74.3733 102.499 74.88C102.219 75.3733 102.079 75.9667 102.079 76.66C102.079 77.34 102.219 77.9333 102.499 78.44C102.779 78.9467 103.152 79.3333 103.619 79.6C104.099 79.8667 104.639 80 105.239 80ZM117.349 82.14C116.176 82.14 115.269 81.84 114.629 81.24C113.989 80.6267 113.669 79.7267 113.669 78.54V68.96H116.169V78.48C116.169 78.9867 116.296 79.38 116.549 79.66C116.816 79.94 117.183 80.08 117.649 80.08C118.209 80.08 118.676 79.9333 119.049 79.64L119.749 81.42C119.456 81.66 119.096 81.84 118.669 81.96C118.243 82.08 117.803 82.14 117.349 82.14ZM111.909 73.4V71.4H119.029V73.4H111.909ZM126.254 82.14C125.161 82.14 124.188 81.9067 123.334 81.44C122.481 80.96 121.808 80.3067 121.314 79.48C120.821 78.6533 120.574 77.7133 120.574 76.66C120.574 75.5933 120.821 74.6533 121.314 73.84C121.808 73.0133 122.481 72.3667 123.334 71.9C124.188 71.4333 125.161 71.2 126.254 71.2C127.361 71.2 128.341 71.4333 129.194 71.9C130.061 72.3667 130.734 73.0067 131.214 73.82C131.708 74.6333 131.954 75.58 131.954 76.66C131.954 77.7133 131.708 78.6533 131.214 79.48C130.734 80.3067 130.061 80.96 129.194 81.44C128.341 81.9067 127.361 82.14 126.254 82.14ZM126.254 80C126.868 80 127.414 79.8667 127.894 79.6C128.374 79.3333 128.748 78.9467 129.014 78.44C129.294 77.9333 129.434 77.34 129.434 76.66C129.434 75.9667 129.294 75.3733 129.014 74.88C128.748 74.3733 128.374 73.9867 127.894 73.72C127.414 73.4533 126.874 73.32 126.274 73.32C125.661 73.32 125.114 73.4533 124.634 73.72C124.168 73.9867 123.794 74.3733 123.514 74.88C123.234 75.3733 123.094 75.9667 123.094 76.66C123.094 77.34 123.234 77.9333 123.514 78.44C123.794 78.9467 124.168 79.3333 124.634 79.6C125.114 79.8667 125.654 80 126.254 80Z" fill="white"/>
</svg>
